<svg width="11" height="12" viewBox="0 0 11 12" fill="none" xmlns="http://www.w3.org/2000/svg">
<path d="M10.5196 0.0901689C10.0233 -0.233639 9.46961 0.390848 9.14506 0.760914C8.40052 1.63982 7.77051 2.6575 7.0641 3.58267C6.28135 4.60035 5.55588 5.61803 4.75404 6.61262C4.29585 7.16772 3.79947 7.76908 3.49401 8.46295C2.80672 7.65339 2.21489 6.77449 1.45124 6.05752C0.897588 5.54868 -0.0187978 5.17861 0.000293609 6.40446C0.0384763 8.00041 1.20305 9.71196 2.06216 10.799C2.4249 11.2616 2.90218 11.7473 3.45583 11.7704C4.12403 11.8167 4.81132 10.8452 5.21223 10.3133C5.91865 9.38811 6.49139 8.34727 7.14046 7.39901C7.98048 6.15004 8.83959 4.92416 9.66052 3.65205C10.176 2.86566 11.7988 0.92278 10.5196 0.0901689ZM0.840282 6.31194C0.821191 6.31194 0.8021 6.31194 0.763917 6.33503C0.687551 6.31194 0.630277 6.28877 0.553912 6.24252C0.611186 6.19626 0.706643 6.21939 0.840282 6.31194Z" fill="#0000FF"/>
</svg>
